<svg width="24" height="15" viewBox="0 0 24 15" fill="none" xmlns="http://www.w3.org/2000/svg">
<path d="M3.5 13H20.5L20.1894 14.2425C20.0781 14.6877 19.6781 15 19.2192 15H4.78078C4.32191 15 3.92193 14.6877 3.81063 14.2425L3.5 13Z" fill="#B39536"/>
<path d="M12.3666 2.95487C13.0178 2.79129 13.5 2.20195 13.5 1.5C13.5 0.671573 12.8284 0 12 0C11.1716 0 10.5 0.671573 10.5 1.5C10.5 2.20195 10.9822 2.79129 11.6334 2.95487C10.926 4.64805 9.24231 8 7 8C5.19784 8 3.57611 6.91741 2.56837 6.05289C2.83528 5.78208 3 5.41028 3 5C3 4.17157 2.32843 3.5 1.5 3.5C0.671573 3.5 0 4.17157 0 5C0 5.82843 0.671573 6.5 1.5 6.5C1.62549 6.5 1.74739 6.48459 1.86389 6.45556L3.5 13H20.5L22.1361 6.45556C22.2526 6.48459 22.3745 6.5 22.5 6.5C23.3284 6.5 24 5.82843 24 5C24 4.17157 23.3284 3.5 22.5 3.5C21.6716 3.5 21 4.17157 21 5C21 5.41027 21.1647 5.78208 21.4316 6.05289C20.4239 6.9174 18.8022 8 17 8C14.7577 8 13.074 4.64805 12.3666 2.95487Z" fill="#FFC200"/>
</svg>
