<svg xmlns="http://www.w3.org/2000/svg" width="140" height="132" fill="none" viewBox="0 0 140 132">
  <path fill="#000" fill-opacity=".12" d="M69.127 10.5a1.012 1.012 0 0 1 1.746 0l68.988 117.984a1.008 1.008 0 0 1-.873 1.516H1.012c-.78 0-1.266-.844-.873-1.516L69.127 10.5Z"/>
  <path fill="#FF584F" d="M1.01 126a1.008 1.008 0 0 1-.87-1.516L13.285 102h113.428l13.147 22.484a1.008 1.008 0 0 1-.871 1.516H1.01Z"/>
  <path fill="url(#shadow-red)" d="M126.713 102H13.285l-5.848 10H132.56l-5.847-10Z"/>
  <path fill="#FF8D4F" d="M13.285 102 27.32 78h85.361l14.033 24H13.285Z"/>
  <path fill="url(#shadow-orange)" d="M118.528 88H21.473l5.847-10h85.361l5.847 10Z"/>
  <path fill="#FFBD42" d="m27.32 78 14.034-24h57.294l14.034 24H27.32Z"/>
  <path fill="url(#shadow-yellow)" d="M103.326 62h-66.65l4.678-8h57.294l4.678 8Z"/>
  <path fill="#FBE346" d="m41.352 54 14.033-24h29.228l14.033 24H41.352Z"/>
  <path fill="url(#shadow-light)" d="M84.613 30H55.385l-4.678 8H89.29l-4.677-8Z"/>
  <path fill="#7EFFCA" d="M70 6c-.338 0-.677.167-.872.5L55.387 30h29.228L70.874 6.5A1.002 1.002 0 0 0 70 6Z"/>
  <defs>
    <linearGradient id="shadow-red" x1="70.214" x2="70.214" y1="102" y2="112" gradientUnits="userSpaceOnUse">
      <stop stop-color="#ED4239"/>
      <stop offset="1" stop-color="#FF584F" stop-opacity="0"/>
    </linearGradient>
    <linearGradient id="shadow-orange" x1="75.86" x2="75.86" y1="78" y2="88" gradientUnits="userSpaceOnUse">
      <stop stop-color="#ED7839"/>
      <stop offset="1" stop-color="#FF8D4F" stop-opacity="0"/>
    </linearGradient>
    <linearGradient id="shadow-yellow" x1="66.58" x2="66.58" y1="54" y2="62" gradientUnits="userSpaceOnUse">
      <stop stop-color="#EBA72A"/>
      <stop offset="1" stop-color="#FFBD42" stop-opacity="0"/>
    </linearGradient>
    <linearGradient id="shadow-light" x1="66.58" x2="66.58" y1="30" y2="38" gradientUnits="userSpaceOnUse">
      <stop stop-color="#DEC526"/>
      <stop offset="1" stop-color="#FBE346" stop-opacity="0"/>
    </linearGradient>
  </defs>
</svg>
