<svg xmlns="http://www.w3.org/2000/svg" width="328" height="282" fill="none" viewBox="0 0 328 282">
  <path fill="url(#gradient)" d="M9.4 235.823c-12.533-12.506-12.533-32.782 0-45.288L190.949 9.38c12.533-12.507 32.853-12.507 45.387 0 12.533 12.506 12.533 32.782 0 45.288L54.787 235.823c-12.533 12.506-32.854 12.506-45.387 0Z"/>
  <path fill="url(#gradient)" d="M91.664 272.62c-12.533-12.506-12.533-32.782 0-45.288L273.213 46.177c12.533-12.506 32.854-12.507 45.387 0 12.533 12.506 12.533 32.782 0 45.288L137.051 272.62c-12.533 12.507-32.853 12.507-45.387 0Z"/>
  <defs>
    <linearGradient id="gradient" x1="336" x2="80" y1="28" y2="296" gradientUnits="userSpaceOnUse">
      <stop stop-color="#fff" stop-opacity="0"/>
      <stop offset=".5" stop-color="#fff" stop-opacity=".08"/>
      <stop offset="1" stop-color="#fff" stop-opacity="0"/>
    </linearGradient>
  </defs>
</svg>
